# xmcd CD database file
#
# Track frame offsets:
#	150
#	25337
#	45553
#	71848
#	95037
#	110791
#	114979
#	146662
#	172542
#	199887
#	222791
#	241295
#	278026
#	314144
#
# Disc length: 4465 seconds
#
# Revision: 2
# Processed by: cddbd v1.5.2PL0 Copyright (c) Steve Scherf et al.
# Submitted via: CDex 1.74
#
DISCID=d1116f0e
DTITLE=Farris, Mike - Shout! Live (Ft. The McCrary Sisters)
DYEAR=2009
DGENRE=Indie Rock
TTITLE0=Silas Intro , Precious Lord Take My Hand
TTITLE1=Selah! Selah!
TTITLE2=Oh Mary Don't You Weep
TTITLE3=Sit Down Servant
TTITLE4=Streets Of Galilee
TTITLE5=Regina's Tambourine
TTITLE6=Devil Don't Sleep
TTITLE7=Good News
TTITLE8=Will the Circle Be Unbroken
TTITLE9=Can't No Grave Hold My Body Down
TTITLE10=Dig A Little Deeper (Ft. The McCrary Sisters)
TTITLE11=Take Me (I'll Take You There)
TTITLE12=I'm Gonna Get There
TTITLE13=Green Green Grass Of Home
EXTD=YEAR: 2009
EXTT0=
EXTT1=
EXTT2=
EXTT3=
EXTT4=
EXTT5=
EXTT6=
EXTT7=
EXTT8=
EXTT9=
EXTT10=
EXTT11=
EXTT12=
EXTT13=
PLAYORDER=
